inDegrees=no
num_controls=7
num_derivatives=13
num_iterations=130
num_multipliers=7
num_parameters=0
num_slacks=7
num_states=26
objective=0.502735
objective_accelerations=0.006800
objective_balance=0.003170
objective_effort=0.011088
objective_height=0.475433
objective_ligament=0.006243
solver_duration=1825.898819
status=Solve_Succeeded
success=true
DataType=double
version=3
OpenSimVersion=4.5
endheader
time	/jointset/ground_pelvis/pelvis_tilt/value	/jointset/ground_pelvis/pelvis_tx/value	/jointset/ground_pelvis/pelvis_ty/value	/jointset/hip_l/hip_flexion_l/value	/jointset/hip_l/hip_adduction_l/value	/jointset/hip_l/hip_rotation_l/value	/jointset/back/lumbar_extension/value	/jointset/patellofemoral_l/patellar_flexion_l/value	/jointset/knee_l/knee_flexion_l/value	/jointset/knee_l/knee_adduction_l/value	/jointset/knee_l/knee_rotation_l/value	/jointset/ankle_l/ankle_angle_l/value	/jointset/subtalar_l/subtalar_angle_l/value	/jointset/ground_pelvis/pelvis_tilt/speed	/jointset/ground_pelvis/pelvis_tx/speed	/jointset/ground_pelvis/pelvis_ty/speed	/jointset/hip_l/hip_flexion_l/speed	/jointset/hip_l/hip_adduction_l/speed	/jointset/hip_l/hip_rotation_l/speed	/jointset/back/lumbar_extension/speed	/jointset/patellofemoral_l/patellar_flexion_l/speed	/jointset/knee_l/knee_flexion_l/speed	/jointset/knee_l/knee_adduction_l/speed	/jointset/knee_l/knee_rotation_l/speed	/jointset/ankle_l/ankle_angle_l/speed	/jointset/subtalar_l/subtalar_angle_l/speed	/forceset/tau_hip_flexion_l	/forceset/tau_hip_adduction_l	/forceset/tau_hip_rotation_l	/forceset/tau_knee_flexion_l	/forceset/tau_ankle_angle_l	/forceset/tau_subtalar_angle_l	/forceset/tau_lumbar_extension	lambda_cid13_p0	lambda_cid13_p1	lambda_cid13_p2	lambda_cid13_p3	lambda_cid13_p4	lambda_cid13_p5	lambda_cid14_p0	/jointset/ground_pelvis/pelvis_tilt/accel	/jointset/ground_pelvis/pelvis_tx/accel	/jointset/ground_pelvis/pelvis_ty/accel	/jointset/hip_l/hip_flexion_l/accel	/jointset/hip_l/hip_adduction_l/accel	/jointset/hip_l/hip_rotation_l/accel	/jointset/back/lumbar_extension/accel	/jointset/patellofemoral_l/patellar_flexion_l/accel	/jointset/knee_l/knee_flexion_l/accel	/jointset/knee_l/knee_adduction_l/accel	/jointset/knee_l/knee_rotation_l/accel	/jointset/ankle_l/ankle_angle_l/accel	/jointset/subtalar_l/subtalar_angle_l/accel	gamma_cid13_p0	gamma_cid13_p1	gamma_cid13_p2	gamma_cid13_p3	gamma_cid13_p4	gamma_cid13_p5	gamma_cid14_p0
0	-0.03682319545546968	0.05667759098349857	0.9203416879866207	0.3085816938045678	-0.2956391134121325	-0.3016075634728429	-0.3879492264334186	0.2499269421184618	0.2499269421184919	-0.1745303705914046	-0.1745324131925546	-0.0008036623358878681	0.0004390144448510822	0	0	0	0	0	0	0	0	0	0	0	0	0	-0.01533087489931276	0.001774783656946748	-0.01367030727210588	-0.1919364908011607	0.1650495599625878	-0.01199106558256708	0.0949443032535195	6.47043909275078	1.052129091864096	2.830563370024128	-6.089906714086571	-688.3918535012406	-65.14129810250236	-23.1970827513891	0.4873803159944864	-0.3451006692686042	-0.04098579341239175	0.3110978551790627	-0.09189993410975597	0.3110508544460213	-2.793764310651341	0.7143848412350612	0.7143848412349642	0.03280762667984484	0.03100859006438548	-0.06181690266323053	-0.1204182825761991	-1.656889039514643e-10	2.632166147276644e-09	2.677080347036343e-10	3.423320020301921e-10	1.954248977262041e-09	9.253214400371388e-10	1.038512549082569e-10
0.01	-0.03679940944843863	0.05666060276846793	0.9203396375173197	0.3085971674302554	-0.2956438286311914	-0.3015921700035684	-0.3880883731020459	0.249962072522108	0.2499620725220992	-0.1745291675935163	-0.1745308860025576	-0.000806805429663983	0.0004328531095449133	0.004695598249644142	-0.003373714547902144	-0.000411957546757273	0.003114151612540881	-0.0009470249766413586	0.003044594766531089	-0.02778138395116379	0.006999774492654539	0.006999774492655116	0.000226341594215782	0.0002794415599058865	-0.0006207430076516482	-0.001233220914264964	-0.01383717187498402	-0.0144955298534444	-0.01385368186014812	-0.1948792933281795	0.1643310522302414	0.002107892579040846	0.0941289561374529	6.777490225231442	-4.957104220047767	3.597038204847165	-7.179373378178011	-688.5852325185898	-78.08382405074798	-23.19744873762694	0.4514090198940396	-0.3299175081113199	-0.04157989741582159	0.3144877276812985	-0.09670135221321803	0.2960490061732591	-2.763132972361813	0.6888277975677284	0.6888277975681073	0.01540916826720861	0.022512442518356	-0.06102162375593596	-0.1249175161656614	-1.24858664290136e-09	-4.705998632018232e-10	2.763281215564405e-09	6.318826411382812e-10	-5.319498097983111e-09	-2.692830846642534e-09	-4.06479076183232e-10
0.02	-0.03673051557079254	0.05661059527584942	0.9203334116401285	0.3086443653547559	-0.2956581336145751	-0.3015473535429448	-0.3885038951171942	0.2500664114794755	0.2500664114794743	-0.1745261288311878	-0.1745273442963664	-0.0008159196783043338	0.0004143308610332952	0.009021574116976638	-0.006603855517576757	-0.0008350815780174788	0.006344859760704201	-0.001917952864182571	0.005884598269712247	-0.05527506930297066	0.01384171075678475	0.01384171075678569	0.0003671528874148656	0.000402903262402213	-0.001194230972890321	-0.002472182641091271	-0.01234346885078376	-0.03076584336375901	-0.01403705644773021	-0.1978220958553716	0.1636125444978608	0.01620685074071015	0.09331360902128083	7.090121004753836	-10.96716227764562	4.363470665187699	-8.267393768256076	-688.6869399102973	-91.02001873668399	-23.19857584493508	0.4134558395312875	-0.316385953622296	-0.04321909031297152	0.3344091623033695	-0.0966805162898722	0.2701326017760735	-2.736224590780403	0.6828171955300562	0.6828171955299144	0.01570156647616386	-0.0001873814174808983	-0.05236589417977759	-0.1215664450883222	-2.331484381851257e-09	-3.57336587368029e-09	5.258854396425176e-09	9.214332802463705e-10	-1.259324517322826e-08	-6.310983133322206e-09	-9.168094072747208e-10
0.03	-0.0366180815104317	0.05652750962555413	0.9203229479014707	0.3087241414978275	-0.2956819107152838	-0.3014749633798226	-0.3891913396558621	0.250238443920182	0.2502384439202342	-0.1745213932520244	-0.174523073835762	-0.0008321162462616217	0.0003832091410708911	0.01361584252695053	-0.01013899805790705	-0.001254897016296904	0.009601008921760973	-0.002805920822041423	0.008585888925266004	-0.08200694010132926	0.02054635884679418	0.02054635884679526	0.0006369990234867339	0.0004587475304991889	-0.002194809804876928	-0.003771180856337098	-0.0256616002814363	-0.0183815473800436	-0.01121641863744815	-0.175139420450598	0.1321296427765998	0.01738994936575415	0.1021689959181202	-3.046380396522492	-9.992935111833454	4.535725140834531	-0.5269767889657628	-689.022626888784	-87.5800584624949	-23.20048854247369	0.5050030022317933	-0.3909367440962217	-0.0409499480177898	0.3198135472380861	-0.08012324365502389	0.268994560528107	-2.610633576175249	0.6615260197955892	0.6615260197959629	0.04118163119038575	0.009605109164208113	-0.1463631437211882	-0.1369194478747608	-9.314396412874197e-12	3.836414606146605e-09	6.625385660983476e-10	-1.175277977208875e-11	2.458427480164434e-09	2.677465473473847e-09	4.310813573895408e-12
0.04	-0.03645518663384438	0.05640530088188702	0.9203083685729437	0.3088361982833458	-0.2957136211571931	-0.3013757868575297	-0.3901398959528757	0.2504769703226243	0.2504769703226297	-0.1745122481126707	-0.1745180179768132	-0.0008628104557421318	0.0003385268513296673	0.01911373735688313	-0.01442847419194044	-0.001658199551858944	0.01280098825211426	-0.003504621104726199	0.01124187010413635	-0.1074974209722756	0.02714050309916858	0.02714050309917035	0.001249064920238118	0.0005599829282255547	-0.004093759277380082	-0.005184296596872581	-0.03897973171235367	-0.005997251396406371	-0.008395780827384713	-0.152456745045976	0.1006467410552483	0.0185730479906893	0.1110243828148384	-13.17771774924437	-9.019002054527977	4.707329650660559	7.220065417979521	-689.2702535863984	-84.13367887708701	-23.20315466906576	0.5941811235221873	-0.4672526723621466	-0.03991650976948759	0.3231751961624976	-0.0588269812551992	0.2610707064393662	-2.487946605298379	0.660716428002926	0.6607164280028919	0.08414551861174559	0.008890844508377281	-0.2320400222822624	-0.1443899501461136	2.38306317097166e-09	1.146294862185609e-08	-4.080001779923073e-09	-9.701499057519203e-10	1.797041806610637e-08	1.19258439955993e-08	9.54945478792411e-10
